<svg width="24" height="24" viewBox="0 0 24 24" fill="none" xmlns="http://www.w3.org/2000/svg">
<path d="M15 2H9C8.44772 2 8 2.44772 8 3V5C8 5.55228 8.44772 6 9 6H15C15.5523 6 16 5.55228 16 5V3C16 2.44772 15.5523 2 15 2Z" stroke="#5C5C5C" stroke-linecap="round" stroke-linejoin="round"/>
<path d="M10.4 12.5998C10.7978 12.202 11.3374 11.9785 11.9 11.9785C12.4626 11.9785 13.0022 12.202 13.4 12.5998C13.7978 12.9977 14.0213 13.5372 14.0213 14.0998C14.0213 14.6624 13.7978 15.202 13.4 15.5998L8 20.9998L4 21.9998L5 17.9998L10.4 12.5998Z" stroke="#5C5C5C" stroke-linecap="round" stroke-linejoin="round"/>
<path d="M16 4H18C18.5304 4 19.0391 4.21071 19.4142 4.58579C19.7893 4.96086 20 5.46957 20 6V20C20 20.5304 19.7893 21.0391 19.4142 21.4142C19.0391 21.7893 18.5304 22 18 22H12.5" stroke="#5C5C5C" stroke-linecap="round" stroke-linejoin="round"/>
<path d="M4 13.5V6C4 5.46957 4.21071 4.96086 4.58579 4.58579C4.96086 4.21071 5.46957 4 6 4H8" stroke="#5C5C5C" stroke-linecap="round" stroke-linejoin="round"/>
</svg>
