<svg width="24" height="24" viewBox="0 0 24 24" fill="none" xmlns="http://www.w3.org/2000/svg">
<mask id="mask0_67_9350" style="mask-type:alpha" maskUnits="userSpaceOnUse" x="0" y="0" width="24" height="24">
<rect width="24" height="24" fill="#D9D9D9"/>
</mask>
<g mask="url(#mask0_67_9350)">
<path d="M8.95382 11.3537L11.1711 9.12104L9.4442 7.37872L8.31535 8.50757L7.26153 7.45374L8.375 6.32489L6.8365 4.78639L4.6038 7.01909L8.95382 11.3537ZM16.9711 19.3864L19.2038 17.1537L17.6653 15.6152L16.5365 16.7287L15.4827 15.6749L16.5961 14.546L14.8634 12.8287L12.6461 15.046L16.9711 19.3864ZM7.2019 20.4998H3.5V16.7979L7.88462 12.4133L2.5 7.01909L6.8365 2.68262L12.2557 8.09222L16.3769 3.95567C16.532 3.80053 16.7026 3.68579 16.8885 3.61144C17.0743 3.53708 17.2686 3.49989 17.4711 3.49989C17.6737 3.49989 17.8679 3.53708 18.0538 3.61144C18.2397 3.68579 18.4102 3.80053 18.5653 3.95567L20.0442 5.47874C20.1993 5.63388 20.3125 5.80438 20.3836 5.99027C20.4548 6.17617 20.4903 6.3704 20.4903 6.57297C20.4903 6.77552 20.4548 6.96558 20.3836 7.14314C20.3125 7.32069 20.1993 7.48703 20.0442 7.64217L15.9422 11.7691L21.3172 17.1633L16.9808 21.4998L11.5865 16.1152L7.2019 20.4998ZM4.99997 18.9999H6.56345L16.3731 9.20564L14.7942 7.62677L4.99997 17.4364V18.9999ZM15.5961 8.41909L14.7942 7.62677L16.3731 9.20564L15.5961 8.41909Z" fill="#63462F"/>
</g>
</svg>
