<svg width="24" height="16" viewBox="0 0 24 16" fill="none" xmlns="http://www.w3.org/2000/svg">
<mask id="path-1-inside-1_432_5072" fill="white">
<path d="M0 0H24V16H0V0Z"/>
</mask>
<path d="M23 0V16H25V0H23Z" fill="#F0F0F0" mask="url(#path-1-inside-1_432_5072)"/>
<mask id="mask0_432_5072" style="mask-type:alpha" maskUnits="userSpaceOnUse" x="0" y="0" width="16" height="16">
<rect width="16" height="16" fill="#D9D9D9"/>
</mask>
<g mask="url(#mask0_432_5072)">
<path d="M11.7843 10.4298C11.7843 11.5125 11.4076 12.4337 10.6542 13.1937C9.90078 13.9536 8.98369 14.3336 7.90294 14.3336C6.82217 14.3336 5.90401 13.9536 5.14845 13.1937C4.39291 12.4337 4.01514 11.5125 4.01514 10.4298V4.43621C4.01514 3.66699 4.28223 3.01315 4.8164 2.47469C5.35059 1.93623 6.0023 1.66699 6.77152 1.66699C7.54075 1.66699 8.19246 1.93623 8.72664 2.47469C9.26083 3.01315 9.52792 3.66699 9.52792 4.43621V10.1093C9.52792 10.5606 9.37074 10.9458 9.05639 11.265C8.74204 11.5843 8.35893 11.7439 7.90704 11.7439C7.45516 11.7439 7.06961 11.5854 6.75039 11.2684C6.43115 10.9513 6.27154 10.565 6.27154 10.1093V4.25674H7.27152V10.1093C7.27152 10.2879 7.33156 10.4383 7.45164 10.5606C7.57173 10.6828 7.72109 10.7439 7.89972 10.7439C8.07836 10.7439 8.22773 10.6828 8.3478 10.5606C8.46789 10.4383 8.52794 10.2879 8.52794 10.1093V4.42981C8.5211 3.9375 8.35013 3.52062 8.015 3.17916C7.67988 2.8377 7.26539 2.66698 6.77152 2.66698C6.27973 2.66698 5.86405 2.83877 5.52447 3.18236C5.18489 3.52595 5.0151 3.9439 5.0151 4.43621V10.4298C5.00827 11.2358 5.2869 11.9212 5.851 12.4862C6.41511 13.0512 7.09986 13.3336 7.90525 13.3336C8.69931 13.3336 9.37425 13.0512 9.93009 12.4862C10.4859 11.9212 10.7707 11.2358 10.7844 10.4298V4.25674H11.7843V10.4298Z" fill="#A3A3A3"/>
</g>
</svg>
