<svg width="24" height="24" viewBox="0 0 24 24" fill="none" xmlns="http://www.w3.org/2000/svg">
<rect width="24" height="24" rx="12" fill="#EDF3FF"/>
<mask id="mask0_67_9428" style="mask-type:alpha" maskUnits="userSpaceOnUse" x="3" y="3" width="18" height="18">
<rect x="3" y="3" width="18" height="18" fill="#D9D9D9"/>
</mask>
<g mask="url(#mask0_67_9428)">
<path d="M9.89423 9.51919V8.39423H16.3557V9.51919H9.89423ZM9.89423 11.6827V10.5577H16.3557V11.6827H9.89423ZM11.9423 19.125H7.49998C6.97596 19.125 6.53245 18.9435 6.16946 18.5805C5.80649 18.2175 5.625 17.774 5.625 17.25V15.0865H7.875V4.875H18.375V11.2182C18.1827 11.2077 17.992 11.2194 17.8031 11.2536C17.6142 11.2877 17.4298 11.3442 17.25 11.423V5.99998H8.99998V15.0865H13.2548L12.1298 16.2115H6.74998V17.25C6.74998 17.4625 6.82186 17.6406 6.96561 17.7844C7.10936 17.9281 7.28748 18 7.49998 18H11.9423V19.125ZM13.5865 19.125V17.1432L17.6582 13.0904C17.7514 12.9971 17.8524 12.9315 17.961 12.8935C18.0697 12.8555 18.1783 12.8365 18.287 12.8365C18.4033 12.8365 18.517 12.8586 18.6281 12.9029C18.7392 12.9471 18.8389 13.0135 18.9274 13.1019L19.6211 13.8029C19.7019 13.8961 19.7644 13.9971 19.8086 14.1057C19.8528 14.2144 19.875 14.3231 19.875 14.4317C19.875 14.5404 19.8548 14.6509 19.8144 14.7634C19.774 14.8759 19.7096 14.9788 19.6211 15.0721L15.5682 19.125H13.5865ZM14.4807 18.2307H15.1932L17.6279 15.7846L17.2831 15.4283L16.9341 15.0764L14.4807 17.5182V18.2307ZM17.2831 15.4283L16.9341 15.0764L17.6279 15.7846L17.2831 15.4283Z" fill="#2D74FF"/>
</g>
</svg>
