<svg width="24" height="24" viewBox="0 0 24 24" fill="none" xmlns="http://www.w3.org/2000/svg">
<rect width="24" height="24" rx="12" fill="#E0FFEF"/>
<mask id="mask0_67_9444" style="mask-type:alpha" maskUnits="userSpaceOnUse" x="3" y="3" width="18" height="18">
<rect x="3" y="3" width="18" height="18" fill="#D9D9D9"/>
</mask>
<g mask="url(#mask0_67_9444)">
<path d="M4.87549 19.5865V18.4615H19.1255V19.5865H4.87549ZM6.37549 17.625V13.6154C5.95338 12.849 5.63102 12.0781 5.40842 11.3026C5.18583 10.5271 5.07454 9.76488 5.07454 9.01584C5.07454 8.33989 5.16059 7.65841 5.33271 6.97138C5.50482 6.28437 5.73414 5.55336 6.02068 4.77836C6.09183 4.58318 6.20866 4.42549 6.37116 4.3053C6.53366 4.1851 6.71875 4.125 6.92644 4.125C7.20335 4.125 7.43844 4.2238 7.6317 4.4214C7.82496 4.61899 7.90381 4.85095 7.86823 5.11729L7.6692 6.74421C7.5942 7.37306 7.66054 7.98027 7.86823 8.56584C8.07593 9.15143 8.38146 9.67019 8.78483 10.1221C9.1882 10.574 9.66777 10.9375 10.2235 11.2125C10.7793 11.4875 11.3716 11.625 12.0005 11.625C12.7649 11.625 13.4952 11.6911 14.1913 11.8233C14.8875 11.9555 15.488 12.1462 15.9928 12.3952C16.512 12.6538 16.9139 12.9846 17.1985 13.3875C17.4831 13.7904 17.6255 14.2904 17.6255 14.8875V17.625H6.37549ZM7.50047 16.5H16.5005V14.8875C16.5005 14.5634 16.4183 14.2786 16.2538 14.0329C16.0894 13.7872 15.8505 13.5884 15.537 13.4365C15.0774 13.2154 14.5317 13.0457 13.9 12.9274C13.2683 12.8091 12.6351 12.75 12.0005 12.75C11.2043 12.75 10.4555 12.5764 9.75409 12.2293C9.05264 11.8822 8.45023 11.4219 7.94687 10.8483C7.44351 10.2747 7.06322 9.61849 6.80601 8.87955C6.54879 8.1406 6.46778 7.38074 6.56297 6.59998C6.43797 6.97498 6.34734 7.37018 6.29109 7.78556C6.23484 8.20094 6.20672 8.61103 6.20672 9.01584C6.20672 9.69757 6.32643 10.3896 6.56586 11.0921C6.80527 11.7945 7.11681 12.5317 7.50047 13.3038V16.5ZM12.0005 10.7019C11.2764 10.7019 10.6579 10.4454 10.145 9.93246C9.63198 9.41948 9.37549 8.80098 9.37549 8.07694C9.37549 7.35291 9.63198 6.73441 10.145 6.22144C10.6579 5.70846 11.2764 5.45198 12.0005 5.45198C12.7245 5.45198 13.343 5.70846 13.856 6.22144C14.369 6.73441 14.6255 7.35291 14.6255 8.07694C14.6255 8.80098 14.369 9.41948 13.856 9.93246C13.343 10.4454 12.7245 10.7019 12.0005 10.7019ZM12.0005 9.57694C12.413 9.57694 12.7661 9.43006 13.0598 9.13631C13.3536 8.84256 13.5005 8.48944 13.5005 8.07694C13.5005 7.66444 13.3536 7.31131 13.0598 7.01756C12.7661 6.72381 12.413 6.57694 12.0005 6.57694C11.588 6.57694 11.2348 6.72381 10.9411 7.01756C10.6473 7.31131 10.5005 7.66444 10.5005 8.07694C10.5005 8.48944 10.6473 8.84256 10.9411 9.13631C11.2348 9.43006 11.588 9.57694 12.0005 9.57694ZM9.20241 17.625V17.1259C9.20241 16.3557 9.4714 15.6983 10.0094 15.1536C10.5473 14.6089 11.2014 14.3365 11.9716 14.3365H14.7408V15.4615H11.9716C11.5082 15.4615 11.1182 15.6242 10.8019 15.9497C10.4856 16.2752 10.3274 16.6673 10.3274 17.1259V17.625H9.20241Z" fill="#00592A"/>
</g>
</svg>
