<svg width="24" height="11" viewBox="0 0 24 11" fill="none" xmlns="http://www.w3.org/2000/svg">
<path d="M0.5 10.7883V9.56907C0.5 8.90368 0.847433 8.35721 1.5423 7.92964C2.23717 7.50208 3.14293 7.28829 4.25958 7.28829C4.44419 7.28829 4.63009 7.29407 4.81727 7.30562C5.00446 7.31715 5.19292 7.33958 5.38265 7.37292C5.18778 7.68445 5.04323 8.00784 4.949 8.34309C4.85478 8.67834 4.80768 9.02225 4.80768 9.37482V10.7883H0.5ZM6.49998 10.7883V9.41329C6.49998 8.94511 6.63139 8.51717 6.89422 8.12947C7.15704 7.74177 7.53588 7.40368 8.03075 7.11522C8.52562 6.82677 9.11023 6.61042 9.78458 6.46619C10.4589 6.32196 11.1961 6.24984 11.9961 6.24984C12.8115 6.24984 13.5564 6.32196 14.2307 6.46619C14.9051 6.61042 15.4897 6.82677 15.9846 7.11522C16.4794 7.40368 16.8557 7.74177 17.1134 8.12947C17.3711 8.51717 17.4999 8.94511 17.4999 9.41329V10.7883H6.49998ZM19.1922 10.7883V9.37769C19.1922 9.00154 19.1477 8.64709 19.0586 8.31434C18.9695 7.98159 18.8358 7.66778 18.6576 7.37292C18.8538 7.33958 19.0413 7.31715 19.2201 7.30562C19.399 7.29407 19.5756 7.28829 19.7499 7.28829C20.8666 7.28829 21.7708 7.49951 22.4624 7.92194C23.1541 8.34438 23.4999 8.89342 23.4999 9.56907V10.7883H19.1922ZM8.07687 9.28829H15.9384V9.18252C15.8359 8.77867 15.4102 8.43892 14.6615 8.16329C13.9128 7.88764 13.0256 7.74982 12 7.74982C10.9743 7.74982 10.0871 7.88764 9.3384 8.16329C8.58968 8.43892 8.16917 8.77867 8.07687 9.18252V9.28829ZM4.25703 6.31714C3.78566 6.31714 3.38299 6.14956 3.04903 5.81439C2.71506 5.47923 2.54808 5.07631 2.54808 4.60564C2.54808 4.12873 2.71566 3.72584 3.05083 3.39699C3.38599 3.06814 3.78891 2.90372 4.25958 2.90372C4.73649 2.90372 5.14097 3.06814 5.47302 3.39699C5.80507 3.72584 5.9711 4.12967 5.9711 4.60849C5.9711 5.07324 5.80683 5.47421 5.4783 5.81139C5.14977 6.14856 4.74268 6.31714 4.25703 6.31714ZM19.7499 6.31714C19.2833 6.31714 18.8814 6.14856 18.5442 5.81139C18.207 5.47421 18.0384 5.07324 18.0384 4.60849C18.0384 4.12967 18.207 3.72584 18.5442 3.39699C18.8814 3.06814 19.2839 2.90372 19.7518 2.90372C20.2339 2.90372 20.6393 3.06814 20.9682 3.39699C21.297 3.72584 21.4615 4.12873 21.4615 4.60564C21.4615 5.07631 21.2974 5.47923 20.9694 5.81439C20.6413 6.14956 20.2349 6.31714 19.7499 6.31714ZM12.0033 5.49984C11.2831 5.49984 10.6698 5.24744 10.1634 4.74264C9.65703 4.23784 9.40382 3.62487 9.40382 2.90372C9.40382 2.16815 9.65623 1.55158 10.161 1.05399C10.6658 0.556408 11.2788 0.307617 12 0.307617C12.7355 0.307617 13.3521 0.556083 13.8497 1.05302C14.3473 1.54995 14.5961 2.16572 14.5961 2.90034C14.5961 3.62054 14.3476 4.23384 13.8507 4.74024C13.3537 5.24664 12.7379 5.49984 12.0033 5.49984ZM12.0047 3.99989C12.3105 3.99989 12.5689 3.89284 12.7798 3.67874C12.9907 3.46462 13.0961 3.20468 13.0961 2.89892C13.0961 2.59315 12.9911 2.33482 12.781 2.12392C12.5709 1.91302 12.3105 1.80757 12 1.80757C11.6974 1.80757 11.439 1.91262 11.2249 2.12272C11.0108 2.33282 10.9038 2.59315 10.9038 2.90372C10.9038 3.20628 11.0108 3.46462 11.2249 3.67874C11.439 3.89284 11.699 3.99989 12.0047 3.99989Z" fill="#FF7224"/>
</svg>
