<svg width="40" height="40" viewBox="0 0 40 40" fill="none" xmlns="http://www.w3.org/2000/svg">
<mask id="mask0_15_9077" style="mask-type:alpha" maskUnits="userSpaceOnUse" x="5" y="5" width="30" height="30">
<rect x="5" y="5" width="30" height="30" fill="#D9D9D9"/>
</mask>
<g mask="url(#mask0_15_9077)">
<path d="M8.125 32.6441V30.7692H31.8749V32.6441H8.125ZM10.625 29.3749V22.6923C9.92148 21.415 9.38422 20.1302 9.01322 18.8377C8.64224 17.5452 8.45675 16.2748 8.45675 15.0264C8.45675 13.8998 8.60018 12.764 8.88703 11.619C9.17389 10.4739 9.55609 9.2556 10.0337 7.96394C10.1522 7.63863 10.3469 7.37581 10.6178 7.1755C10.8886 6.97517 11.1971 6.875 11.5432 6.875C12.0048 6.875 12.3966 7.03967 12.7187 7.369C13.0408 7.69831 13.1722 8.08492 13.1129 8.52881L12.7812 11.2403C12.6562 12.2884 12.7668 13.3004 13.1129 14.2764C13.4591 15.2524 13.9683 16.117 14.6406 16.8702C15.3129 17.6234 16.1121 18.2292 17.0384 18.6875C17.9647 19.1458 18.9519 19.375 20 19.375C21.274 19.375 22.4912 19.4852 23.6514 19.7055C24.8117 19.9259 25.8124 20.2436 26.6538 20.6587C27.5192 21.0897 28.189 21.641 28.6634 22.3125C29.1378 22.984 29.3749 23.8173 29.3749 24.8125V29.3749H10.625ZM12.5 27.5H27.5V24.8125C27.5 24.2724 27.3629 23.7976 27.0889 23.3882C26.8149 22.9787 26.4166 22.6474 25.8942 22.3942C25.1282 22.0256 24.2187 21.7428 23.1658 21.5456C22.113 21.3485 21.0577 21.25 20 21.25C18.6731 21.25 17.4251 20.9607 16.256 20.3822C15.0869 19.8036 14.0829 19.0364 13.244 18.0805C12.405 17.1246 11.7712 16.0308 11.3425 14.7993C10.9138 13.5677 10.7788 12.3012 10.9375 11C10.7291 11.625 10.5781 12.2836 10.4843 12.9759C10.3906 13.6682 10.3437 14.3517 10.3437 15.0264C10.3437 16.1626 10.5432 17.3161 10.9423 18.4868C11.3413 19.6574 11.8605 20.8862 12.5 22.1731V27.5ZM20 17.8365C18.7933 17.8365 17.7624 17.4091 16.9074 16.5541C16.0525 15.6991 15.625 14.6683 15.625 13.4616C15.625 12.2549 16.0525 11.224 16.9074 10.3691C17.7624 9.5141 18.7933 9.08663 20 9.08663C21.2067 9.08663 22.2375 9.5141 23.0925 10.3691C23.9475 11.224 24.3749 12.2549 24.3749 13.4616C24.3749 14.6683 23.9475 15.6991 23.0925 16.5541C22.2375 17.4091 21.2067 17.8365 20 17.8365ZM20 15.9616C20.6875 15.9616 21.276 15.7168 21.7656 15.2272C22.2552 14.7376 22.5 14.1491 22.5 13.4616C22.5 12.7741 22.2552 12.1855 21.7656 11.6959C21.276 11.2064 20.6875 10.9616 20 10.9616C19.3125 10.9616 18.7239 11.2064 18.2343 11.6959C17.7448 12.1855 17.5 12.7741 17.5 13.4616C17.5 14.1491 17.7448 14.7376 18.2343 15.2272C18.7239 15.7168 19.3125 15.9616 20 15.9616ZM15.3365 29.3749V28.5432C15.3365 27.2596 15.7848 26.1638 16.6815 25.256C17.5781 24.3481 18.6682 23.8942 19.9519 23.8942H24.5673V25.7692H19.9519C19.1794 25.7692 18.5296 26.0404 18.0023 26.5829C17.4751 27.1253 17.2115 27.7788 17.2115 28.5432V29.3749H15.3365Z" fill="#B82900"/>
</g>
</svg>
