<svg width="40" height="40" viewBox="0 0 40 40" fill="none" xmlns="http://www.w3.org/2000/svg">
<mask id="mask0_15_6866" style="mask-type:alpha" maskUnits="userSpaceOnUse" x="0" y="0" width="40" height="40">
<rect width="40" height="40" fill="#D9D9D9"/>
</mask>
<g mask="url(#mask0_15_6866)">
<path d="M0.833374 29.6474V27.6154C0.833374 26.5065 1.41243 25.5957 2.57054 24.8831C3.72865 24.1705 5.23825 23.8141 7.09933 23.8141C7.40703 23.8141 7.71686 23.8238 8.02883 23.843C8.3408 23.8622 8.6549 23.8996 8.97113 23.9552C8.64635 24.4744 8.40543 25.0134 8.24837 25.5721C8.09135 26.1309 8.01283 26.7041 8.01283 27.2917V29.6474H0.833374ZM10.8333 29.6474V27.3558C10.8333 26.5755 11.0524 25.8623 11.4904 25.2161C11.9284 24.5699 12.5598 24.0065 13.3846 23.5257C14.2094 23.0449 15.1838 22.6844 16.3077 22.444C17.4316 22.2036 18.6602 22.0834 19.9935 22.0834C21.3525 22.0834 22.594 22.2036 23.7179 22.444C24.8418 22.6844 25.8162 23.0449 26.641 23.5257C27.4657 24.0065 28.0929 24.5699 28.5223 25.2161C28.9518 25.8623 29.1666 26.5755 29.1666 27.3558V29.6474H10.8333ZM31.9871 29.6474V27.2965C31.9871 26.6696 31.9128 26.0788 31.7643 25.5242C31.6158 24.9696 31.3931 24.4466 31.0961 23.9552C31.423 23.8996 31.7355 23.8622 32.0336 23.843C32.3317 23.8238 32.626 23.8141 32.9166 23.8141C34.7777 23.8141 36.2846 24.1662 37.4374 24.8702C38.5902 25.5743 39.1666 26.4894 39.1666 27.6154V29.6474H31.9871ZM13.4615 27.1475H26.5641V26.9712C26.3931 26.2981 25.6837 25.7319 24.4359 25.2725C23.188 24.8131 21.7094 24.5834 20 24.5834C18.2905 24.5834 16.8119 24.8131 15.564 25.2725C14.3162 25.7319 13.6153 26.2981 13.4615 26.9712V27.1475ZM7.09508 22.1956C6.30947 22.1956 5.63836 21.9163 5.08175 21.3576C4.52514 20.799 4.24683 20.1275 4.24683 19.3431C4.24683 18.5482 4.52614 17.8767 5.08475 17.3286C5.64336 16.7806 6.31489 16.5065 7.09933 16.5065C7.89419 16.5065 8.56833 16.7806 9.12175 17.3286C9.67517 17.8767 9.95187 18.5498 9.95187 19.3478C9.95187 20.1224 9.6781 20.7907 9.13054 21.3526C8.58299 21.9146 7.9045 22.1956 7.09508 22.1956ZM32.9166 22.1956C32.1388 22.1956 31.469 21.9146 30.907 21.3526C30.3451 20.7907 30.0641 20.1224 30.0641 19.3478C30.0641 18.5498 30.3451 17.8767 30.907 17.3286C31.469 16.7806 32.1399 16.5065 32.9197 16.5065C33.7232 16.5065 34.3989 16.7806 34.947 17.3286C35.4951 17.8767 35.7691 18.5482 35.7691 19.3431C35.7691 20.1275 35.4958 20.799 34.949 21.3576C34.4023 21.9163 33.7248 22.1956 32.9166 22.1956ZM20.0056 20.8334C18.8053 20.8334 17.7831 20.4127 16.9391 19.5714C16.0951 18.7301 15.6731 17.7084 15.6731 16.5065C15.6731 15.2806 16.0937 14.253 16.9351 13.4236C17.7764 12.5943 18.798 12.1797 20 12.1797C21.2259 12.1797 22.2535 12.5938 23.0829 13.422C23.9122 14.2502 24.3268 15.2765 24.3268 16.5009C24.3268 17.7012 23.9127 18.7234 23.0845 19.5674C22.2563 20.4114 21.23 20.8334 20.0056 20.8334ZM20.008 18.3335C20.5176 18.3335 20.9482 18.1551 21.2997 17.7982C21.6511 17.4414 21.8269 17.0081 21.8269 16.4985C21.8269 15.9889 21.6518 15.5584 21.3017 15.2069C20.9515 14.8554 20.5176 14.6796 20 14.6796C19.4957 14.6796 19.0651 14.8547 18.7083 15.2049C18.3515 15.555 18.173 15.9889 18.173 16.5065C18.173 17.0108 18.3515 17.4414 18.7083 17.7982C19.0651 18.1551 19.4983 18.3335 20.008 18.3335Z" fill="#B82900"/>
</g>
</svg>
