<svg width="24" height="24" viewBox="0 0 24 24" fill="none" xmlns="http://www.w3.org/2000/svg">
<mask id="mask0_15_6323" style="mask-type:alpha" maskUnits="userSpaceOnUse" x="0" y="0" width="24" height="24">
<rect width="24" height="24" fill="#D9D9D9"/>
</mask>
<g mask="url(#mask0_15_6323)">
<path d="M6.0502 17.7754C5.71686 17.5921 5.45853 17.3462 5.2752 17.0379C5.09186 16.7296 5.0002 16.3837 5.0002 16.0004V11.2004L2.6002 9.87539C2.41686 9.77539 2.28353 9.65039 2.2002 9.50039C2.11686 9.35039 2.0752 9.18372 2.0752 9.00039C2.0752 8.81706 2.11686 8.65039 2.2002 8.50039C2.28353 8.35039 2.41686 8.22539 2.6002 8.12539L11.0502 3.52539C11.2002 3.44206 11.3544 3.37956 11.5127 3.33789C11.671 3.29622 11.8335 3.27539 12.0002 3.27539C12.1669 3.27539 12.3294 3.29622 12.4877 3.33789C12.646 3.37956 12.8002 3.44206 12.9502 3.52539L22.4752 8.72539C22.6419 8.80872 22.771 8.92956 22.8627 9.08789C22.9544 9.24622 23.0002 9.41706 23.0002 9.60039V16.0004C23.0002 16.2837 22.9044 16.5212 22.7127 16.7129C22.521 16.9046 22.2835 17.0004 22.0002 17.0004C21.7169 17.0004 21.4794 16.9046 21.2877 16.7129C21.096 16.5212 21.0002 16.2837 21.0002 16.0004V10.1004L19.0002 11.2004V16.0004C19.0002 16.3837 18.9085 16.7296 18.7252 17.0379C18.5419 17.3462 18.2835 17.5921 17.9502 17.7754L12.9502 20.4754C12.8002 20.5587 12.646 20.6212 12.4877 20.6629C12.3294 20.7046 12.1669 20.7254 12.0002 20.7254C11.8335 20.7254 11.671 20.7046 11.5127 20.6629C11.3544 20.6212 11.2002 20.5587 11.0502 20.4754L6.0502 17.7754ZM12.0002 12.7004L18.8502 9.00039L12.0002 5.30039L5.1502 9.00039L12.0002 12.7004ZM12.0002 18.7254L17.0002 16.0254V12.2504L12.9752 14.4754C12.8252 14.5587 12.6669 14.6212 12.5002 14.6629C12.3335 14.7046 12.1669 14.7254 12.0002 14.7254C11.8335 14.7254 11.6669 14.7046 11.5002 14.6629C11.3335 14.6212 11.1752 14.5587 11.0252 14.4754L7.0002 12.2504V16.0254L12.0002 18.7254Z" fill="#B82900"/>
</g>
</svg>
