<svg width="54" height="16" viewBox="0 0 54 16" fill="none" xmlns="http://www.w3.org/2000/svg">
<mask id="path-1-inside-1_432_1028" fill="white">
<path d="M0 0H54V16H0V0Z"/>
</mask>
<path d="M53 0V16H55V0H53Z" fill="#F0F0F0" mask="url(#path-1-inside-1_432_1028)"/>
<mask id="mask0_432_1028" style="mask-type:alpha" maskUnits="userSpaceOnUse" x="0" y="0" width="16" height="16">
<rect width="16" height="16" fill="#D9D9D9"/>
</mask>
<g mask="url(#mask0_432_1028)">
<path d="M11.7843 10.4298C11.7843 11.5125 11.4076 12.4337 10.6542 13.1937C9.90078 13.9536 8.98369 14.3336 7.90294 14.3336C6.82217 14.3336 5.90401 13.9536 5.14845 13.1937C4.39291 12.4337 4.01514 11.5125 4.01514 10.4298V4.43621C4.01514 3.66699 4.28223 3.01315 4.8164 2.47469C5.35059 1.93623 6.0023 1.66699 6.77152 1.66699C7.54075 1.66699 8.19246 1.93623 8.72664 2.47469C9.26083 3.01315 9.52792 3.66699 9.52792 4.43621V10.1093C9.52792 10.5606 9.37074 10.9458 9.05639 11.265C8.74204 11.5843 8.35893 11.7439 7.90704 11.7439C7.45516 11.7439 7.06961 11.5854 6.75039 11.2684C6.43115 10.9513 6.27154 10.565 6.27154 10.1093V4.25674H7.27152V10.1093C7.27152 10.2879 7.33156 10.4383 7.45164 10.5606C7.57173 10.6828 7.72109 10.7439 7.89972 10.7439C8.07836 10.7439 8.22773 10.6828 8.3478 10.5606C8.46789 10.4383 8.52794 10.2879 8.52794 10.1093V4.42981C8.5211 3.9375 8.35013 3.52062 8.015 3.17916C7.67988 2.8377 7.26539 2.66698 6.77152 2.66698C6.27973 2.66698 5.86405 2.83877 5.52447 3.18236C5.18489 3.52595 5.0151 3.9439 5.0151 4.43621V10.4298C5.00827 11.2358 5.2869 11.9212 5.851 12.4862C6.41511 13.0512 7.09986 13.3336 7.90525 13.3336C8.69931 13.3336 9.37425 13.0512 9.93009 12.4862C10.4859 11.9212 10.7707 11.2358 10.7844 10.4298V4.25674H11.7843V10.4298Z" fill="#A3A3A3"/>
</g>
<path d="M20.4773 5.09801V3.77273H27.4403V5.09801H24.7429V12.5H23.1747V5.09801H20.4773ZM30.663 12.6278C30.0067 12.6278 29.44 12.4915 28.9627 12.2188C28.4883 11.9432 28.1232 11.554 27.8675 11.0511C27.6119 10.5455 27.484 9.95028 27.484 9.26562C27.484 8.59233 27.6119 8.00142 27.8675 7.4929C28.1261 6.98153 28.4869 6.58381 28.9499 6.29972C29.413 6.01278 29.957 5.86932 30.582 5.86932C30.9854 5.86932 31.3661 5.93466 31.7241 6.06534C32.0849 6.19318 32.4031 6.39205 32.6786 6.66193C32.957 6.93182 33.1758 7.27557 33.3349 7.69318C33.494 8.10795 33.5735 8.60227 33.5735 9.17614V9.64915H28.2085V8.60938H32.0948C32.092 8.31392 32.0281 8.05114 31.9031 7.82102C31.7781 7.58807 31.6033 7.40483 31.3789 7.27131C31.1573 7.13778 30.8988 7.07102 30.6033 7.07102C30.288 7.07102 30.011 7.14773 29.7724 7.30114C29.5337 7.4517 29.3477 7.65057 29.2141 7.89773C29.0835 8.14205 29.0167 8.41051 29.0138 8.70312V9.6108C29.0138 9.99148 29.0835 10.3182 29.2227 10.5909C29.3619 10.8608 29.5565 11.0682 29.8065 11.2131C30.0565 11.3551 30.3491 11.4261 30.6843 11.4261C30.9087 11.4261 31.1119 11.3949 31.2937 11.3324C31.4755 11.267 31.6332 11.1719 31.7667 11.0469C31.9002 10.9219 32.0011 10.767 32.0692 10.5824L33.5096 10.7443C33.4187 11.125 33.2454 11.4574 32.9897 11.7415C32.7369 12.0227 32.413 12.2415 32.0181 12.3977C31.6232 12.5511 31.1715 12.6278 30.663 12.6278ZM35.9993 5.95455L37.3203 8.37074L38.6626 5.95455H40.2947L38.3217 9.22727L40.3288 12.5H38.7053L37.3203 10.1435L35.9482 12.5H34.3118L36.3061 9.22727L34.3629 5.95455H35.9993ZM44.7564 5.95455V7.14773H40.9936V5.95455H44.7564ZM41.9226 4.38636H43.4652V10.5312C43.4652 10.7386 43.4964 10.8977 43.5589 11.0085C43.6243 11.1165 43.7095 11.1903 43.8146 11.2301C43.9197 11.2699 44.0362 11.2898 44.1641 11.2898C44.2607 11.2898 44.3487 11.2827 44.4283 11.2685C44.5107 11.2543 44.5732 11.2415 44.6158 11.2301L44.8757 12.4361C44.7933 12.4645 44.6754 12.4957 44.522 12.5298C44.3714 12.5639 44.1868 12.5838 43.968 12.5895C43.5817 12.6009 43.2337 12.5426 42.924 12.4148C42.6143 12.2841 42.3686 12.0824 42.1868 11.8097C42.0078 11.5369 41.9197 11.196 41.9226 10.7869V4.38636Z" fill="#0B0B0B"/>
</svg>
