<svg width="40" height="40" viewBox="0 0 40 40" fill="none" xmlns="http://www.w3.org/2000/svg">
<mask id="mask0_15_4733" style="mask-type:alpha" maskUnits="userSpaceOnUse" x="0" y="0" width="40" height="40">
<rect width="40" height="40" fill="#D9D9D9"/>
</mask>
<g mask="url(#mask0_15_4733)">
<path d="M0.833008 29.6494V27.6174C0.833008 26.5084 1.41206 25.5976 2.57017 24.885C3.72829 24.1724 5.23788 23.8161 7.09897 23.8161C7.40666 23.8161 7.71649 23.8257 8.02847 23.845C8.34044 23.8642 8.65454 23.9016 8.97076 23.9571C8.64598 24.4764 8.40506 25.0153 8.24801 25.5741C8.09098 26.1328 8.01247 26.706 8.01247 27.2936V29.6494H0.833008ZM10.833 29.6494V27.3578C10.833 26.5775 11.052 25.8642 11.49 25.2181C11.9281 24.5719 12.5595 24.0084 13.3843 23.5276C14.209 23.0469 15.1834 22.6863 16.3073 22.4459C17.4312 22.2055 18.6598 22.0853 19.9932 22.0853C21.3521 22.0853 22.5936 22.2055 23.7175 22.4459C24.8414 22.6863 25.8158 23.0469 26.6406 23.5276C27.4654 24.0084 28.0925 24.5719 28.522 25.2181C28.9515 25.8642 29.1662 26.5775 29.1662 27.3578V29.6494H10.833ZM31.9867 29.6494V27.2984C31.9867 26.6715 31.9125 26.0808 31.764 25.5262C31.6155 24.9716 31.3927 24.4486 31.0957 23.9571C31.4226 23.9016 31.7351 23.8642 32.0332 23.845C32.3313 23.8257 32.6256 23.8161 32.9162 23.8161C34.7773 23.8161 36.2843 24.1681 37.4371 24.8722C38.5898 25.5762 39.1662 26.4913 39.1662 27.6174V29.6494H31.9867ZM13.4611 27.1494H26.5637V26.9731C26.3928 26.3001 25.6834 25.7338 24.4355 25.2744C23.1876 24.815 21.709 24.5853 19.9996 24.5853C18.2902 24.5853 16.8115 24.815 15.5637 25.2744C14.3158 25.7338 13.615 26.3001 13.4611 26.9731V27.1494ZM7.09472 22.1975C6.30911 22.1975 5.63799 21.9182 5.08138 21.3596C4.52477 20.801 4.24647 20.1295 4.24647 19.345C4.24647 18.5502 4.52577 17.8787 5.08438 17.3306C5.64299 16.7825 6.31452 16.5085 7.09897 16.5085C7.89383 16.5085 8.56797 16.7825 9.12138 17.3306C9.6748 17.8787 9.95151 18.5517 9.95151 19.3498C9.95151 20.1243 9.67773 20.7926 9.13017 21.3546C8.58262 21.9165 7.90413 22.1975 7.09472 22.1975ZM32.9162 22.1975C32.1385 22.1975 31.4686 21.9165 30.9066 21.3546C30.3447 20.7926 30.0637 20.1243 30.0637 19.3498C30.0637 18.5517 30.3447 17.8787 30.9066 17.3306C31.4686 16.7825 32.1395 16.5085 32.9193 16.5085C33.7228 16.5085 34.3986 16.7825 34.9466 17.3306C35.4947 17.8787 35.7688 18.5502 35.7688 19.345C35.7688 20.1295 35.4954 20.801 34.9487 21.3596C34.4019 21.9182 33.7244 22.1975 32.9162 22.1975ZM20.0053 20.8353C18.8049 20.8353 17.7827 20.4147 16.9387 19.5733C16.0947 18.732 15.6727 17.7104 15.6727 16.5085C15.6727 15.2825 16.0934 14.2549 16.9347 13.4256C17.7761 12.5963 18.7977 12.1816 19.9996 12.1816C21.2255 12.1816 22.2532 12.5958 23.0825 13.424C23.9118 14.2522 24.3265 15.2785 24.3265 16.5028C24.3265 17.7032 23.9124 18.7253 23.0841 19.5693C22.2559 20.4133 21.2296 20.8353 20.0053 20.8353ZM20.0076 18.3354C20.5172 18.3354 20.9478 18.157 21.2993 17.8002C21.6508 17.4433 21.8265 17.0101 21.8265 16.5005C21.8265 15.9909 21.6514 15.5603 21.3013 15.2088C20.9511 14.8573 20.5172 14.6816 19.9996 14.6816C19.4953 14.6816 19.0648 14.8566 18.7079 15.2068C18.3511 15.557 18.1727 15.9909 18.1727 16.5085C18.1727 17.0128 18.3511 17.4433 18.7079 17.8002C19.0648 18.157 19.498 18.3354 20.0076 18.3354Z" fill="#B82900"/>
</g>
</svg>
